<?xml version="1.0" encoding="UTF-8"?>
<svg xmlns="http://www.w3.org/2000/svg" xmlns:xlink="http://www.w3.org/1999/xlink" width="593.5pt" height="234.5pt" viewBox="0 0 593.5 234.5" version="1.1">
<g id="surface1">
<path style=" stroke:none;fill-rule:evenodd;fill:rgb(81.25%,8.227539%,26.660156%);fill-opacity:1;" d="M 100.03125 1.222656 C 103.921875 -0.0898438 107.371094 2.851563 110.578125 4.589844 C 139.941406 21.496094 169.273438 38.496094 198.652344 55.390625 C 201.660156 56.980469 204.101563 60.101563 203.800781 63.660156 C 203.789063 99.3125 203.789063 134.972656 203.789063 170.621094 C 204.03125 173.839844 202.039063 176.8125 199.328125 178.402344 C 169.113281 195.871094 138.828125 213.273438 108.621094 230.78125 C 105.550781 232.871094 101.460938 234.402344 98.03125 232.140625 C 67.78125 214.773438 37.632813 197.210938 7.351563 179.890625 C 3.75 178.152344 0.046875 175.101563 0.382813 170.660156 C 0.351563 134.972656 0.351563 99.273438 0.382813 63.578125 C 0.140625 60.039063 2.457031 56.980469 5.492188 55.421875 C 34.273438 38.902344 62.960938 22.230469 91.742188 5.703125 C 94.480469 4.179688 97.046875 2.273438 100.03125 1.222656 Z M 98.832031 18.980469 C 72.332031 34.0625 45.996094 49.441406 19.570313 64.632813 C 16.660156 66.160156 15.039063 69.320313 15.332031 72.578125 C 15.351563 102.570313 15.289063 132.5625 15.363281 162.546875 C 15.242188 165.53125 17.046875 168.167969 19.589844 169.582031 C 45.796875 184.703125 71.980469 199.882813 98.230469 214.941406 C 100.828125 216.570313 104.160156 216.222656 106.660156 214.5625 C 132.652344 199.613281 158.613281 184.589844 184.578125 169.601563 C 187.023438 168.210938 189.011719 165.652344 188.722656 162.703125 C 188.710938 132.320313 188.703125 101.953125 188.722656 71.570313 C 189.039063 68.601563 187.039063 65.996094 184.570313 64.613281 C 158.621094 49.589844 132.632813 34.621094 106.671875 19.640625 C 104.339844 18.179688 101.328125 17.601563 98.832031 18.980469 Z M 98.832031 18.980469 "/>
<path style=" stroke:none;fill-rule:evenodd;fill:rgb(80.076599%,9.008789%,26.660156%);fill-opacity:1;" d="M 271.363281 61.453125 C 273.480469 59.632813 276.402344 60.152344 278.152344 62.210938 C 278.351563 73.683594 278.261719 85.160156 278.203125 96.632813 C 278.382813 101.710938 274.820313 106.222656 270.613281 108.671875 C 267.140625 110.460938 262.289063 111.910156 259.3125 108.511719 C 259.191406 106.660156 259.261719 104.8125 260.453125 103.289063 C 263.660156 102.460938 267.039063 102.101563 269.339844 99.453125 L 270.511719 99.3125 C 272.113281 96.710938 271.640625 93.523438 271.773438 90.613281 C 271.550781 81.03125 272.140625 71.421875 271.390625 61.863281 Z M 271.363281 61.453125 "/>
<path style=" stroke:none;fill-rule:evenodd;fill:rgb(80.46875%,8.616638%,26.660156%);fill-opacity:1;" d="M 304.410156 63.460938 C 305.089844 61.453125 307.441406 59.601563 309.589844 60.613281 C 312.160156 61.382813 312.621094 64.328125 313.652344 66.433594 C 318.929688 79.910156 324.851563 93.140625 330.160156 106.621094 C 329.683594 107.613281 329.210938 108.613281 328.761719 109.613281 C 326.871094 110.632813 324.390625 111.191406 322.871094 109.261719 C 321.0625 106.320313 320.070313 102.972656 318.660156 99.828125 C 311.800781 99.773438 304.929688 99.730469 298.070313 99.863281 C 296.511719 103.03125 295.671875 106.621094 293.632813 109.523438 C 291.671875 111.640625 288.910156 110.242188 287.171875 108.671875 C 287.050781 107.289063 287.121094 105.933594 287.382813 104.589844 C 292.960938 90.839844 298.871094 77.230469 304.410156 63.460938 Z M 308.101563 75.492188 C 305.871094 80.921875 303.390625 86.28125 301.601563 91.882813 C 306.191406 91.921875 310.78125 91.941406 315.382813 91.863281 C 313.03125 86.390625 311.320313 80.492188 308.101563 75.492188 Z M 399.800781 64.621094 C 399.402344 62.453125 401.261719 60.023438 403.570313 60.300781 C 412.261719 60.273438 420.972656 60.273438 429.660156 60.363281 C 432.613281 60.230469 434.640625 64.390625 432.5625 66.578125 C 431.511719 68.320313 429.351563 68.171875 427.601563 68.203125 C 421.0625 68.152344 414.53125 68.171875 407.992188 68.078125 C 407.78125 72.492188 407.890625 76.910156 407.910156 81.328125 C 413.460938 81.492188 419.039063 81.050781 424.578125 81.5625 C 427.761719 82.210938 428.152344 87.039063 425.613281 88.683594 C 424.496094 89.589844 422.921875 89.140625 421.632813 89.300781 C 417.101563 89.230469 412.570313 89.363281 408.050781 89.183594 C 407.710938 93.550781 407.953125 97.933594 407.863281 102.3125 C 414.78125 102.410156 421.691406 102.261719 428.613281 102.363281 C 430.703125 102.273438 432.691406 103.710938 433.339844 105.691406 C 433.992188 108.410156 431.246094 110.851563 428.640625 110.621094 C 420.601563 110.613281 412.550781 110.640625 404.511719 110.613281 C 402.589844 110.882813 401.132813 109.601563 399.851563 108.390625 C 399.773438 93.800781 399.871094 79.210938 399.800781 64.621094 Z M 441.441406 64.539063 C 441.160156 61.601563 444.820313 59.101563 447.382813 60.742188 C 449.289063 62.191406 450.539063 64.300781 452.03125 66.140625 C 459.039063 75.171875 466.050781 84.183594 473.050781 93.210938 C 473.410156 93.28125 474.132813 93.410156 474.492188 93.472656 L 475.539063 93.691406 C 475.671875 83.101563 476.152344 72.460938 475.242188 61.902344 L 475.191406 61.339844 C 477.863281 59.121094 482.730469 60.691406 482.269531 64.539063 C 482.140625 79.300781 482.78125 94.113281 481.929688 108.839844 C 480.160156 110.339844 477.496094 111.53125 475.621094 109.492188 C 468.761719 100.992188 462.203125 92.230469 455.433594 83.652344 C 453.480469 81.222656 451.789063 78.539063 449.382813 76.523438 C 449.160156 87.140625 449.328125 97.78125 449.289063 108.410156 L 448.996094 108.222656 C 448.882813 108.039063 448.640625 107.703125 448.523438 107.53125 C 449.5625 101.933594 448.929688 96.222656 449.113281 90.570313 C 449.03125 85.800781 449.710938 80.863281 448.023438 76.273438 C 446.742188 87.621094 448.589844 99.113281 447.03125 110.441406 C 444.5625 111.121094 441.421875 109.496094 441.460938 106.710938 C 441.402344 92.660156 441.441406 78.601563 441.441406 64.539063 Z M 322.8125 124.800781 C 325.210938 123.613281 328.746094 125.742188 328.289063 128.539063 C 328.300781 137.882813 328.261719 147.230469 328.289063 156.570313 C 328.0625 162.410156 333.730469 167.796875 339.589844 166.902344 C 344.511719 166.28125 348.472656 161.613281 348.371094 156.667969 C 348.496094 146.902344 348.230469 137.132813 348.480469 127.371094 C 349.421875 123.8125 354.761719 123.570313 356.070313 126.960938 C 356.382813 136.820313 356.078125 146.710938 356.210938 156.589844 C 356.953125 166.539063 347.410156 175.441406 337.613281 174.789063 C 328.621094 174.613281 320.460938 166.660156 320.472656 157.582031 C 320.351563 147.902344 320.421875 138.210938 320.441406 128.53125 C 320.3125 126.910156 321.421875 125.496094 322.8125 124.800781 Z M 354.730469 126.929688 C 354.328125 136.480469 354.660156 146.0625 354.511719 155.632813 C 354.570313 157.472656 354.261719 159.492188 355.339844 161.132813 C 356.171875 151.972656 355.28125 142.761719 355.703125 133.578125 C 355.511719 131.382813 356.269531 128.773438 354.730469 126.929688 Z M 354.730469 126.929688 "/>
<path style=" stroke:none;fill-rule:evenodd;fill:rgb(80.859375%,8.616638%,26.660156%);fill-opacity:1;" d="M 337.828125 62.460938 C 339.078125 60.550781 341.339844 59.539063 343.550781 60.53125 C 345.679688 62.191406 346.679688 64.820313 348.132813 67.023438 C 353.0625 74.902344 357.710938 82.953125 362.601563 90.851563 C 367.863281 82.578125 372.679688 74.039063 377.871094 65.742188 C 379.210938 63.761719 380.089844 61.140625 382.472656 60.183594 C 384.222656 59.800781 386.851563 60.621094 387.101563 62.640625 C 386.679688 64.921875 386.230469 67.210938 386.261719 69.539063 C 386.300781 80.242188 386.363281 90.941406 386.246094 101.632813 C 386.210938 103.820313 386.53125 105.996094 387.0625 108.132813 L 387.191406 108.710938 C 385.300781 110.953125 382.242188 111.078125 380.140625 109.070313 L 380.261719 108.273438 C 381.53125 98.722656 380.851563 89.011719 380.703125 79.402344 L 379.691406 79.839844 C 379.402344 79.980469 378.828125 80.28125 378.539063 80.421875 C 373.960938 87.371094 369.871094 94.652344 365.570313 101.773438 C 364.570313 102.160156 363.570313 102.539063 362.589844 102.941406 C 361.589844 102.53125 360.589844 102.132813 359.601563 101.722656 C 355.402344 94.539063 351.179688 87.363281 346.691406 80.371094 C 346.410156 80.242188 345.851563 79.992188 345.570313 79.863281 L 344.5625 79.472656 C 344.320313 89.050781 343.679688 98.746094 344.953125 108.28125 L 345.078125 109.078125 C 342.953125 111.070313 339.890625 110.980469 338.03125 108.660156 L 338.132813 108.230469 C 338.660156 106.070313 338.960938 103.851563 338.921875 101.621094 C 338.828125 90.613281 338.851563 79.601563 338.929688 68.589844 C 338.980469 66.601563 338.539063 64.640625 337.921875 62.761719 Z M 561.730469 60.742188 C 568.019531 59.53125 574.8125 60.410156 580.3125 63.828125 C 586.183594 67.550781 590.660156 73.632813 591.941406 80.511719 C 593.5625 88.089844 591.203125 96.300781 586.019531 102.023438 C 580.070313 108.871094 570.191406 112.191406 561.371094 109.882813 C 553.273438 108.023438 546.320313 101.902344 543.410156 94.121094 C 541.230469 87.710938 541.480469 80.339844 544.429688 74.203125 C 547.890625 67.511719 554.28125 62.246094 561.730469 60.742188 Z M 561.828125 68.980469 C 554.222656 71.371094 548.960938 79.539063 550.078125 87.460938 C 550.890625 94.261719 556.191406 100.171875 562.722656 102.050781 C 566.746094 102.480469 571.191406 102.828125 574.863281 100.730469 C 580.613281 97.640625 584.882813 91.320313 584.132813 84.613281 C 584.410156 73.671875 571.992188 65.191406 561.828125 68.980469 Z M 127.960938 83.152344 C 131.902344 81.929688 136.433594 85.453125 136.210938 89.578125 C 136.289063 91.152344 135.578125 92.589844 134.902344 93.960938 C 130.382813 102.800781 126.230469 111.828125 121.511719 120.5625 C 119.660156 123.921875 114.820313 124.820313 111.8125 122.496094 C 108.941406 120.472656 108.402344 116.242188 110.203125 113.320313 C 114.828125 104.480469 118.941406 95.382813 123.640625 86.570313 C 124.472656 84.820313 126.089844 83.601563 127.960938 83.152344 Z M 155.050781 83.261719 C 159.992188 81.371094 165.601563 87.121094 163.3125 91.980469 C 154.589844 109.660156 145.722656 127.28125 136.921875 144.917969 C 135.691406 147.472656 134.261719 150.441406 131.191406 151.046875 C 126.03125 152.722656 120.800781 146.402344 123.570313 141.660156 C 132.132813 124.246094 140.933594 106.960938 149.539063 89.570313 C 150.78125 87.070313 152.050781 84.011719 155.050781 83.261719 Z M 98.796875 83.773438 C 102.402344 81.621094 107.441406 83.761719 108.570313 87.746094 C 109.421875 89.972656 108.351563 92.191406 107.328125 94.132813 C 98.429688 111.960938 89.621094 129.828125 80.546875 147.570313 C 78.441406 152.523438 70.667969 152.363281 68.582031 147.480469 C 66.480469 143.851563 69.417969 140.210938 70.910156 136.980469 C 78.863281 120.941406 86.992188 104.992188 94.871094 88.921875 C 95.839844 86.992188 96.863281 84.902344 98.796875 83.773438 Z M 57.953125 111.078125 C 62.652344 108.421875 68.746094 113.402344 67.539063 118.472656 C 62.996094 128.382813 57.917969 138.039063 53.023438 147.773438 C 51.28125 151.28125 46.242188 152.453125 43.179688 149.941406 C 40.460938 148.039063 39.613281 144.121094 41.289063 141.261719 C 45.339844 133.242188 49.363281 125.203125 53.3125 117.121094 C 54.480469 114.882813 55.460938 112.171875 57.953125 111.078125 Z M 260.320313 125.351563 C 262.390625 123.972656 265.539063 124.070313 266.742188 126.539063 C 272.671875 135.773438 278.101563 145.320313 283.871094 154.660156 C 284.578125 154.167969 285.183594 153.570313 285.652344 152.839844 C 291.050781 143.882813 296.320313 134.832031 301.992188 126.050781 C 303.246094 123.839844 305.960938 124.160156 307.890625 125.210938 L 307.839844 125.683594 C 306.769531 134.621094 307.539063 143.640625 307.390625 152.621094 C 307.523438 159.582031 307.039063 166.570313 307.820313 173.496094 L 307.863281 173.910156 C 306.320313 174.710938 303.539063 175.632813 302.671875 173.582031 C 302.769531 163.621094 303.078125 153.640625 302.5625 143.691406 L 301.410156 143.941406 C 301.152344 143.992188 300.640625 144.101563 300.382813 144.152344 C 296.179688 150.761719 292.191406 157.511719 288.171875 164.230469 C 287.273438 165.789063 285.578125 167.429688 283.621094 166.980469 C 281.371094 166.679688 280.339844 164.492188 279.28125 162.789063 C 275.519531 156.382813 271.671875 150.03125 267.789063 143.691406 C 267.578125 143.832031 267.160156 144.101563 266.953125 144.230469 C 264.28125 146.53125 265.941406 150.539063 265.578125 153.613281 C 266.269531 160.140625 264.289063 167.011719 266.5625 173.28125 C 264.863281 174.746094 262.460938 175.390625 260.570313 173.882813 L 260.589844 173.410156 C 260.929688 164.8125 260.652344 156.210938 260.742188 147.613281 C 260.652344 140.371094 261.222656 133.101563 260.371094 125.882813 Z M 366.070313 139.53125 C 365.851563 129.339844 377.390625 122.300781 386.710938 124.980469 C 393.210938 126.039063 400.761719 131.472656 399.039063 138.890625 C 397.132813 140.851563 393.101563 141.261719 392.03125 138.230469 C 389.523438 130.550781 376.070313 130.460938 373.980469 138.539063 C 373.191406 141.222656 375.023438 143.882813 377.5625 144.703125 C 381.679688 146.511719 386.421875 145.089844 390.511719 146.992188 C 395.53125 148.929688 399.902344 153.882813 399.300781 159.546875 C 399.640625 165.523438 395.472656 171.023438 390.121094 173.289063 C 384.910156 175.742188 378.710938 175.03125 373.601563 172.660156 C 369.933594 171.011719 366.789063 167.691406 366.089844 163.652344 C 365.382813 161.0625 367.8125 158.246094 370.496094 158.890625 C 373.601563 159.070313 373.511719 163.082031 375.613281 164.621094 C 379.902344 167.679688 386.992188 167.933594 390.246094 163.222656 C 391.679688 161.640625 391.289063 159.453125 391.453125 157.511719 C 388.472656 153.402344 382.992188 153.640625 378.480469 153.289063 C 371.871094 152.480469 365.230469 146.640625 366.070313 139.53125 Z M 372.730469 138.03125 C 371.941406 138.773438 371.761719 141.339844 373.210938 141.246094 C 373.953125 140.492188 374.152344 137.953125 372.730469 138.03125 Z M 435.773438 129.78125 C 444.402344 122.933594 457.570313 122.992188 466.160156 129.863281 C 467.550781 130.863281 467.910156 132.523438 467.992188 134.132813 C 466.710938 135.78125 464.972656 137.691406 462.632813 136.863281 C 459.203125 134.996094 455.800781 132.433594 451.652344 132.851563 C 444.050781 132.023438 436.953125 137.667969 434.671875 144.691406 C 433.328125 150.039063 433.996094 156.191406 437.769531 160.453125 C 443.289063 167.796875 455.050781 168.910156 461.863281 162.742188 C 463.941406 160.289063 468.679688 161.132813 468.992188 164.546875 C 469.53125 166.679688 468.121094 168.363281 466.480469 169.453125 C 460.402344 174.242188 452.03125 176.011719 444.5625 173.980469 C 434.152344 171.390625 425.929688 161.433594 425.839844 150.632813 C 425.351563 142.5625 429.382813 134.613281 435.773438 129.78125 Z M 435.773438 129.78125 "/>
<path style=" stroke:none;fill-rule:evenodd;fill:rgb(80.46875%,9.008789%,26.660156%);fill-opacity:1;" d="M 496.703125 60.589844 C 500.933594 59.980469 505.269531 60.492188 509.550781 60.328125 C 520.691406 60.152344 531.113281 68.621094 533.5625 79.433594 C 534.960938 86.371094 534.011719 94.03125 529.652344 99.800781 C 524.410156 107.578125 514.730469 111.101563 505.613281 110.601563 C 501.941406 110.210938 496.371094 112.160156 494.53125 107.761719 C 494.203125 93.371094 494.472656 78.960938 494.402344 64.5625 C 494.050781 62.789063 495.421875 61.539063 496.703125 60.589844 Z M 502.320313 68.300781 C 502.246094 79.589844 502.382813 90.882813 502.246094 102.171875 C 505.902344 102.222656 509.578125 102.480469 513.203125 101.980469 C 520.429688 100.113281 526.210938 93.203125 526.242188 85.652344 C 526.453125 79.28125 522.539063 73.140625 516.972656 70.203125 C 512.523438 67.710938 507.222656 68.179688 502.320313 68.300781 Z M 502.320313 68.300781 "/>
<path style=" stroke:none;fill-rule:evenodd;fill:rgb(65.429688%,14.501953%,27.43988%);fill-opacity:1;" d="M 270.601563 62.53125 L 271.390625 61.863281 C 272.140625 71.421875 271.550781 81.03125 271.773438 90.613281 C 271.640625 93.523438 272.113281 96.710938 270.511719 99.3125 L 269.339844 99.453125 C 269.851563 98.210938 270.191406 96.933594 270.371094 95.613281 C 270.589844 84.589844 270.089844 73.53125 270.601563 62.53125 Z M 270.601563 62.53125 "/>
<path style=" stroke:none;fill-rule:evenodd;fill:rgb(59.568787%,9.812927%,21.972656%);fill-opacity:1;" d="M 474.230469 66.601563 C 474.433594 65.039063 473.730469 62.972656 475.242188 61.902344 C 476.152344 72.460938 475.671875 83.101563 475.539063 93.691406 L 474.492188 93.472656 C 473.902344 84.539063 474.453125 75.550781 474.230469 66.601563 Z M 474.230469 66.601563 "/>
<path style=" stroke:none;fill-rule:evenodd;fill:rgb(59.179688%,15.281677%,27.830505%);fill-opacity:1;" d="M 337.921875 62.761719 C 338.539063 64.640625 338.980469 66.601563 338.933594 68.589844 C 338.851563 79.601563 338.828125 90.613281 338.921875 101.621094 C 338.960938 103.851563 338.660156 106.070313 338.132813 108.230469 C 337.242188 106.472656 337.460938 104.472656 337.441406 102.578125 C 337.511719 90.242188 337.421875 77.910156 337.472656 65.578125 C 337.578125 64.882813 337.8125 63.472656 337.921875 62.761719 Z M 337.921875 62.761719 "/>
<path style=" stroke:none;fill-rule:evenodd;fill:rgb(61.131287%,16.868591%,28.637695%);fill-opacity:1;" d="M 386.261719 69.539063 C 386.230469 67.210938 386.679688 64.921875 387.101563 62.640625 C 388.132813 64.839844 387.742188 67.320313 387.800781 69.671875 C 387.789063 80.652344 387.769531 91.632813 387.820313 102.613281 C 387.746094 104.453125 388.070313 106.460938 387.0625 108.132813 C 386.53125 105.996094 386.210938 103.820313 386.246094 101.632813 C 386.363281 90.941406 386.300781 80.242188 386.261719 69.539063 Z M 386.261719 69.539063 "/>
<path style=" stroke:none;fill-rule:evenodd;fill:rgb(100%,98.826599%,99.21875%);fill-opacity:1;" d="M 308.101563 75.492188 C 311.320313 80.492188 313.03125 86.390625 315.382813 91.863281 C 310.78125 91.941406 306.191406 91.921875 301.601563 91.882813 C 303.390625 86.28125 305.871094 80.921875 308.101563 75.492188 Z M 308.101563 75.492188 "/>
<path style=" stroke:none;fill-rule:evenodd;fill:rgb(68.554688%,8.616638%,23.925781%);fill-opacity:1;" d="M 448.023438 76.273438 C 449.710938 80.863281 449.03125 85.800781 449.113281 90.570313 C 448.929688 96.222656 449.5625 101.933594 448.523438 107.53125 C 448.640625 107.703125 448.882813 108.039063 448.996094 108.222656 L 449.230469 108.539063 C 448.679688 109.011719 447.578125 109.960938 447.03125 110.441406 C 448.589844 99.113281 446.742188 87.621094 448.023438 76.273438 Z M 448.023438 76.273438 "/>
<path style=" stroke:none;fill-rule:evenodd;fill:rgb(59.179688%,15.696716%,27.830505%);fill-opacity:1;" d="M 344.5625 79.472656 L 345.570313 79.863281 C 346.242188 89.0625 345.890625 98.410156 345.742188 107.652344 L 344.953125 108.28125 C 343.683594 98.746094 344.320313 89.050781 344.5625 79.472656 Z M 344.5625 79.472656 "/>
<path style=" stroke:none;fill-rule:evenodd;fill:rgb(57.226563%,14.501953%,27.050781%);fill-opacity:1;" d="M 379.691406 79.839844 L 380.703125 79.402344 C 380.851563 89.011719 381.53125 98.722656 380.261719 108.273438 C 378.710938 107.289063 379.601563 105.132813 379.339844 103.632813 C 379.632813 95.710938 378.890625 87.703125 379.691406 79.839844 Z M 379.691406 79.839844 "/>
<path style=" stroke:none;fill-rule:evenodd;fill:rgb(80.076599%,8.616638%,26.660156%);fill-opacity:1;" d="M 411.882813 124.921875 C 414.671875 123.550781 417.789063 126.820313 417.261719 129.640625 C 417.242188 143.273438 417.320313 156.910156 417.222656 170.539063 C 417.511719 173.351563 414.371094 175.546875 411.789063 174.632813 C 410.496094 173.683594 408.820313 172.511719 409.121094 170.679688 C 409.121094 156.632813 409.101563 142.582031 409.132813 128.53125 C 408.980469 126.828125 410.441406 125.523438 411.882813 124.921875 Z M 409.460938 131.621094 C 409.671875 144.953125 409.261719 158.296875 409.660156 171.613281 L 410.660156 172.246094 C 410.761719 157.222656 410.78125 142.191406 410.652344 127.160156 C 408.671875 127.691406 409.789063 130.183594 409.460938 131.621094 Z M 409.460938 131.621094 "/>
<path style=" stroke:none;fill-rule:evenodd;fill:rgb(61.521912%,10.594177%,24.705505%);fill-opacity:1;" d="M 259.480469 126.496094 L 260.371094 125.882813 C 261.222656 133.101563 260.652344 140.371094 260.742188 147.613281 C 260.652344 156.210938 260.929688 164.8125 260.589844 173.410156 L 259.480469 172.851563 C 259.160156 157.417969 259.179688 141.933594 259.480469 126.496094 Z M 259.480469 126.496094 "/>
<path style=" stroke:none;fill-rule:evenodd;fill:rgb(66.209412%,12.939453%,26.660156%);fill-opacity:1;" d="M 307.839844 125.683594 L 308.710938 126.3125 C 309.492188 133.039063 308.851563 139.863281 309.0625 146.632813 C 308.8125 155.371094 309.539063 164.183594 308.679688 172.882813 L 307.820313 173.496094 C 307.039063 166.570313 307.523438 159.582031 307.390625 152.621094 C 307.539063 143.640625 306.769531 134.621094 307.839844 125.683594 Z M 307.839844 125.683594 "/>
<path style=" stroke:none;fill-rule:evenodd;fill:rgb(65.818787%,7.446289%,23.143005%);fill-opacity:1;" d="M 354.730469 126.929688 C 356.269531 128.773438 355.511719 131.382813 355.703125 133.578125 C 355.28125 142.761719 356.171875 151.972656 355.339844 161.132813 C 354.261719 159.492188 354.570313 157.472656 354.511719 155.632813 C 354.660156 146.0625 354.328125 136.480469 354.730469 126.929688 Z M 354.730469 126.929688 "/>
<path style=" stroke:none;fill-rule:evenodd;fill:rgb(58.789063%,9.812927%,23.143005%);fill-opacity:1;" d="M 409.460938 131.621094 C 409.789063 130.183594 408.671875 127.691406 410.652344 127.160156 C 410.78125 142.191406 410.761719 157.222656 410.660156 172.246094 L 409.660156 171.613281 C 409.261719 158.296875 409.671875 144.953125 409.460938 131.621094 Z M 409.460938 131.621094 "/>
<path style=" stroke:none;fill-rule:evenodd;fill:rgb(60.351563%,12.156677%,24.31488%);fill-opacity:1;" d="M 372.730469 138.03125 C 374.152344 137.953125 373.953125 140.492188 373.210938 141.246094 C 371.761719 141.339844 371.941406 138.773438 372.730469 138.03125 Z M 372.730469 138.03125 "/>
<path style=" stroke:none;fill-rule:evenodd;fill:rgb(59.959412%,9.812927%,23.925781%);fill-opacity:1;" d="M 301.410156 143.941406 L 302.5625 143.691406 C 303.078125 153.640625 302.769531 163.621094 302.671875 173.582031 L 301.453125 172.8125 C 300.996094 163.222656 301.039063 153.53125 301.410156 143.941406 Z M 301.410156 143.941406 "/>
<path style=" stroke:none;fill-rule:evenodd;fill:rgb(66.992188%,10.205078%,24.31488%);fill-opacity:1;" d="M 265.578125 153.613281 C 265.941406 150.539063 264.28125 146.53125 266.953125 144.230469 C 267.3125 150.339844 267.023438 156.460938 267.113281 162.582031 C 267.011719 166.152344 267.496094 169.78125 266.5625 173.28125 C 264.289063 167.011719 266.269531 160.140625 265.578125 153.613281 Z M 265.578125 153.613281 "/>
</g>
</svg>
